<?xml version="1.0" encoding="UTF-8"?>
<!-- Created with Inkscape (http://www.inkscape.org/) -->
<svg width="117.16mm" height="161.29mm" version="1.1" viewBox="0 0 117.16 161.29" xmlns="http://www.w3.org/2000/svg">
 <path d="m65.785 159.24c-5.4544-3.446-8.4862-6.0056-22.196-18.74-16.382-15.216-22.84-19.356-32.139-20.602l-3.2453-0.43471 0.90961-1.3386c0.50028-0.73624 1.9906-3.5142 3.3119-6.1732 1.3212-2.659 2.6996-5.099 3.0631-5.4221 0.36348-0.32313 1.2582-0.69835 1.9882-0.83383 1.25-0.23198 1.3491-0.18365 1.7026 0.83028 0.30208 0.86654 0.98189 1.3899 3.4843 2.6823 1.71 0.88315 4.7538 2.6924 6.7641 4.0205 11.698 7.7283 20.289 17.158 28.177 30.931 3.0032 5.2431 5.9292 9.4857 8.9469 12.973 1.3828 1.598 2.732 3.1823 2.9983 3.5205 0.9446 1.1999-0.46853 0.66944-3.7654-1.4134zm-20.046-8.4197c-1.3339-0.91211-3.9333-2.7961-5.7766-4.1867-7.6256-5.7529-14.896-10.188-21.907-13.365-5.348-2.4229-7.1548-2.9498-13.547-3.9506-2.1343-0.33416-4.1072-0.72571-4.3842-0.87013-0.59665-0.31109 0.94672-1.162 5.1467-2.8376 2.2388-0.89317 3.1032-1.0691 4.5408-0.92407 2.6007 0.26237 12.594 4.8354 16.783 7.6798 2.8336 1.9242 8.4233 6.424 11.619 9.3534 3.6486 3.3445 10.362 10.348 10.135 10.574-0.10162 0.10162-1.2761-0.5615-2.61-1.4736zm19.973-7.3848c-6e-3 -3.3457 1.0187-9.5012 2.3624-14.196l1.241-4.3363-2.9465-2.7506c-1.6206-1.5128-4.266-3.9271-5.8786-5.3651s-3.6632-3.6838-4.5567-4.9906c-2.2508-3.2922-2.3418-4.7125-0.68594-10.717 3.8842-14.086 4.9907-21.222 5.7451-37.048l0.23764-4.9859-0.87757-0.575c-1.4527-0.95185-6.5805-2.6981-6.8139-2.3204-0.11678 0.18896-0.10149 0.52289 0.034 0.74209 0.13807 0.2234 0.067 0.33878-0.16168 0.26255-0.22439-0.0748-1.0061-0.92882-1.737-1.8978-1.8058-2.394-4.6169-4.0549-6.8627-4.0549-2.9195 0-4.8056 1.4833-6.5045 5.1153-0.91369 1.9533-0.98969 2.4433-0.98488 6.35 6e-3 4.8203 0.53774 6.6456 3.0187 10.361 1.95 2.9202 5.7695 6.9532 7.6021 8.0272 1.973 1.1563 4.5567 1.2123 6.3769 0.13839 0.68971-0.40694 1.3475-0.64645 1.4617-0.53225 0.39396 0.39396-0.539 1.3866-2.0585 2.1901-2.1287 1.1257-4.0512 1.0506-6.5335-0.25511-2.6618-1.4002-7.3611-5.0941-9.6078-7.5524-0.99023-1.0835-1.957-1.9699-2.1483-1.9699-0.19136 0-0.77515 1.1509-1.2973 2.5576-2.2305 6.0088-5.5051 13.175-8.461 18.515-3.2956 5.9542-3.6251 6.2274-3.6793 3.0506-0.0482-2.8269-1.1259-7.7739-2.6422-12.129-0.84444-2.4254-2.4394-6.9497-3.5444-10.054-5.5919-15.71-8.4905-30.953-6.7815-35.66 0.37989-1.0462 0.44061-1.8663 0.22202-2.9986-0.40963-2.1219-0.38913-5.1146 0.048-7.0116 0.64463-2.7973 3.1646-8.7794 4.5758-10.863 4.5951-6.7828 18.344-13.694 33.205-16.693 4.5994-0.92793 5.7432-1.0397 8.5394-0.83443 2.0839 0.15297 3.9622 0.08472 5.2975-0.19249 4.9345-1.0244 17.203-1.0206 23.359 0.0073 6.2619 1.0457 12.511 2.9843 17.227 5.3443 6.3484 3.1768 9.3698 5.9919 9.3698 8.73 0 1.9456-2.0658 7.5499-4.0817 11.073-1.4232 2.4875-1.9209 3.6833-1.7617 4.2333 0.12201 0.4216 0.70517 2.5922 1.2959 4.8235 0.59074 2.2313 1.8812 6.7557 2.8678 10.054 1.3932 4.6582 1.8102 6.6106 1.8676 8.7443 0.0708 2.6293 0.0295 2.7881-0.96224 3.7042-2.2162 2.047-2.5115 3.6804-1.2257 6.7779 0.67127 1.6171 4.5121 8.4023 7.5882 13.406 0.99397 1.6166 0.96319 2.0906-0.29799 4.589-1.2718 2.5194-2.0014 3.0283-4.71 3.2855-1.1361 0.10786-2.1487 0.2792-2.2502 0.38074-0.10155 0.10155 0.2929 0.94473 0.87654 1.8737 1.2123 1.9296 2.3074 6.0484 2.141 8.0521-0.1016 1.2231-0.23487 1.3881-1.3475 1.6682-2.1104 0.5313-2.2604 0.91824-1.2294 3.1703 0.90692 1.981 0.90791 1.994 0.84581 11.09-0.0668 9.7837 0.15302 11.684 2.0093 17.371l0.85534 2.6205-0.97595 1.0194c-1.4289 1.4925-5.5052 3.3722-8.7371 4.0289-5.7151 1.1613-12.318-0.59247-23.583-6.2636-5.7688-2.9043-7.0946-3.4484-7.527-3.0895-1.5984 1.3266-4.9793 9.9676-5.776 14.763-0.56044 3.3729-1.0368 3.9296-1.0414 1.2171zm25.733-48.862c2.4344-6.9181 4.0592-9.0327 7.5386-9.8114 1.1053-0.24735 2.0096-0.56739 2.0096-0.71121 0-0.14381-0.49223-0.72774-1.0938-1.2976-1.4392-1.3633-1.7916-2.3371-1.3274-3.6688 0.41871-1.2011 1.201-1.487 0.89796-0.32812-0.10693 0.40888-0.05 1.1232 0.12651 1.5875 0.3149 0.82826 0.40537 0.84437 4.8276 0.85956 4.6773 0.0161 6.5666 0.40329 7.913 1.6218 0.69872 0.63234 0.73923 0.61825 1.9169-0.66683 0.66171-0.72205 1.2031-1.6294 1.2031-2.0164s-1.4986-3.2071-3.3303-6.267c-3.6808-6.149-5.2004-9.9805-5.2306-13.188-0.0156-1.6589 0.19948-2.3736 1.3144-4.3672 1.6148-2.8875 1.6023-3.0781-0.69291-10.586-0.88975-2.9104-2.0962-7.185-2.6809-9.4991-0.58477-2.3141-1.2072-4.4764-1.3831-4.8052-0.51633-0.96478-5.521-3.367-9.4364-4.5294-5.7672-1.7122-12.576-2.8321-15.514-2.5515-0.24253 0.02317 0.47184 0.96159 1.5875 2.0854 2.6525 2.6718 6.0473 7.6789 6.3119 9.3096 0.23286 1.435-1.0745 4.7592-2.4457 6.2188-0.42205 0.44926-2.6576 1.9578-4.9679 3.3524-5.7071 3.4451-5.9923 3.763-6.9203 7.7159-1.6819 7.1641-2.2801 16.545-1.2444 19.514 0.37477 1.0745 1.7805 2.6303 5.8935 6.5226 2.9708 2.8113 6.7221 6.388 8.3364 7.9482l2.935 2.8367 0.32869 2.8115c0.40866 3.4955 1.0233 5.8723 1.4794 5.7203 0.19093-0.0636 0.93225-1.7785 1.6474-3.8107zm6.726-31.73c-0.29104-0.1715-1.5616-0.7997-2.8235-1.396-1.2619-0.59631-2.77-1.4748-3.3514-1.9522-0.89118-0.73176-0.97401-0.92513-0.52788-1.2323 1.9875-1.3683 9.6194-2.1758 10.653-1.1271 0.37788 0.38321 0.27193 0.61993-0.5993 1.339-2.8493 2.3516-2.7357 2.1922-2.4914 3.4943 0.23552 1.2554 0.0709 1.4228-0.86 0.87433zm-1.6335-2.9099c0.36623-1.3666 0.24879-1.6757-0.63663-1.6757-1.052 0-2.6688 0.58637-2.6688 0.96789 0 0.39697 1.8281 1.481 2.5165 1.4922 0.31692 5e-3 0.67194-0.3478 0.78893-0.78436zm5.3189-4.0979c-0.76583-0.55611-2.0101-1.2108-2.765-1.4549-1.9012-0.61461-8.4194-0.52773-10.605 0.14137-0.96109 0.29418-1.8226 0.45967-1.9145 0.36776-0.28152-0.28152 1.0215-1.0942 5.151-3.2126l3.9585-2.0307 4.8609 1.225c4.0734 1.0266 4.9179 1.3538 5.2124 2.02 0.21826 0.49373 0.6069 0.75875 1.0255 0.69935 1.1471-0.16278 1.0348 0.73807-0.25251 2.0254-1.537 1.537-2.7762 1.5951-4.671 0.21918zm2.8516-38.293c0.62513-2.1051 0.63389-2.3896 0.10905-3.5415-0.62213-1.3654-0.93521-1.0776-0.73734 0.67798 0.15603 1.3843-0.11191 3.1395-0.81597 5.3454-0.19649 0.61561-0.17108 0.613 0.35712-0.03664 0.31277-0.38468 0.80198-1.4851 1.0871-2.4453zm-11.965-6.7751c-0.45382-1.3319-0.45674-1.5455-0.0211-1.5455 0.27804 0 0.98279 0.65882 1.5661 1.464 1.0057 1.3883 1.0605 1.4163 1.0605 0.54144 0-1.1451-1.7142-3.151-3.6747-4.2999-2.3402-1.3714-9.0253-3.986-9.0253-3.5298 0 0.06384 1.1509 0.74876 2.5576 1.5221 3.1478 1.7304 5.6248 3.8726 6.4231 5.5549 0.33178 0.69917 0.78841 2.3305 1.0147 3.6252l0.41151 2.354 0.10705-2.0705c0.0618-1.1958-0.11542-2.7234-0.41956-3.616zm-8.7046 1.0564c-1.2173-2.5146-4.0232-5.138-7.0405-6.5824-4.1072-1.9662-5.2032-1.9763-1.7829-0.0164 3.7394 2.1428 6.5664 4.7277 8.1459 7.4484 0.88993 1.5329 1.2594 1.9285 1.3422 1.4372 0.0628-0.37287-0.23628-1.4019-0.66464-2.2868zm-13.181-3.8229c-2.2074-1.8045-8.051-4.162-11.39-4.5952-2.0924-0.27143-1.5239 0.15675 1.6701 1.258 1.2566 0.43324 4.0309 1.5458 6.1652 2.4724 4.4035 1.9117 5.0188 2.0614 3.5551 0.86486zm-21.725 68.977c-2.2408-0.68162-5.2427-2.8509-6.061-4.3799-0.39152-0.73155-0.39098-0.7316 0.63084-0.0575 0.56248 0.37107 2.4122 1.4891 4.1106 2.4846 1.6983 0.99544 2.9816 1.9162 2.8516 2.0462-0.27248 0.27248-0.34365 0.26815-1.5321-0.0934zm2.6262-2.8468c-1.7912-0.38992-4.6827-2.1499-6.1533-3.7454-2.4831-2.6938-2.3491-4.4928 0.59876-8.0443l2.0042-2.4145-0.97449-1.8613c-1.6512-3.1538-3.779-3.3306-5.8402-0.48525-0.58406 0.80628-1.1627 2.0028-1.2858 2.659-0.12311 0.65619-0.3721 1.1931-0.55333 1.1931-0.45737 0-6e-3 -2.2964 0.85065-4.3297 1.8796-4.4602 5.8782-4.599 8.8929-0.30867 1.0309 1.4671 1.0728 1.6738 1.1081 5.4628 0.0273 2.9301 0.18471 4.2089 0.61519 4.9963 0.31821 0.58208 0.57953 1.3228 0.58073 1.646 1e-3 0.32324 0.64573 1.0974 1.4323 1.7204 1.1863 0.93954 1.4119 1.3141 1.3229 2.1964-0.12449 1.2351-0.97886 1.6675-2.5985 1.3149z" fill="#fff" stroke-width=".35278"/>
</svg>
